<?xml version="1.0" encoding="UTF-8"?>
<svg id="Capa_1" data-name="Capa 1" xmlns="http://www.w3.org/2000/svg" viewBox="0 0 167.08 201.09">
  <defs>
    <style>
      .cls-1 {
        fill: #fc0382;
        stroke-width: 0px;
      }
    </style>
  </defs>
  <path class="cls-1" d="M118.9,177.66c9.26-.54,18.34-4.44,24.56-11.32,10.8-11.94,14.19-32.45,11.36-47.92-2.95-16.09-15.25-30.66-32.12-32.63-3.66-.43-7.6-.28-10.69-2.44-3.13-2.19-5.09-6.31-6.82-9.58-8.14-15.38-15.78-31.03-22.91-46.9-.55-1.21,1.06-2.22,1.92-1.21,15.47,18.16,26.71,40.48,46.72,53.41.53.34,1.06.66,1.61.97,8.8,4.94,20.71,1.37,29.22,6.87.42.27.97.58,1.39.31.18-.11.29-.31.39-.5,3.16-5.91,4.3-13.44,3.05-20.04-2.54-13.44-16.59-25.84-27.32-33.18-11.94-8.18-25.95-13.4-40.39-14.67-3.54-.31-7.15-.41-10.5-1.58s-6.49-3.65-7.34-7.09c-.72-2.92.27-6.14-1.75-8.8-.99-1.31-2.82-1.78-4.16-.83-1.69,1.2-1.15,3.66-.66,5.62,2.26,8.94.46,18.37-1.74,27.33-5.9,24.03-14.6,47.27-23.51,70.34-.25.66-.55,1.31-.95,1.89-2.64,3.88-6.4,2.7-10.11,1.6-4.94-1.46-10.23-2.17-15.32-1.01C7.61,109.76.96,126.83.12,140.86c-.73,12.21,1.9,24.7,8.13,35.22,6.23,10.52,16.13,18.97,27.75,22.78,13.15,4.31,27.95,2.33,39.19-5.81,3.44-2.49,6.51-5.51,9.01-8.95,2.42-3.34,3.65-8.5,7.04-10.97,3.49-2.54,7.43.05,11,1.62,5.22,2.3,10.97,3.24,16.66,2.91ZM100.41,71.63c.33.64.64,1.28.96,1.92,1.42,2.92,5.79,10.69,3.54,13.89-.6.85-1.67,1.27-2.64,1.51-.89.22-1.81.32-2.72.31-3.15-.02-6.19-.86-9.3-1.21-3.33-.37-6.35.2-9.39,1.54-5.18,2.29-9.2,6.73-11.9,11.72-1.86,3.44-3.15,7.14-4.18,10.9-.5,1.81-.72,5.32-3.05,5.76s-6.27-2.9-7.81-4.48c-.59-.61-1.17-1.3-1.33-2.14-.14-.73.03-1.47.22-2.19,2.21-8.72,5.34-17.11,8.09-25.66,2.07-6.41,4.07-12.84,6.12-19.25,2.05-6.41,4.14-12.81,6.38-19.16.73-2.05,2.03-9.65,4.46-10.09,1.03-.19,2.09.36,2.79,1.15s1.12,1.77,1.55,2.73c5.07,11.43,12.54,21.63,18.23,32.76Z"/>
</svg>