<?xml version="1.0" encoding="UTF-8"?>
<svg id="Capa_1" data-name="Capa 1" xmlns="http://www.w3.org/2000/svg" viewBox="0 0 625.2 438.17">
  <defs>
    <style>
      .cls-1 {
        fill: #f80680;
      }

      .cls-1, .cls-2, .cls-3 {
        stroke-width: 0px;
      }

      .cls-2 {
        fill: #fc0382;
      }

      .cls-3 {
        fill: #d9237a;
      }
    </style>
  </defs>
  <path class="cls-2" d="M335.07,226.43c11.81-.68,23.37-5.66,31.31-14.43,13.77-15.22,18.09-41.36,14.48-61.08-3.75-20.51-19.44-39.08-40.94-41.59-4.66-.54-9.69-.35-13.62-3.12-3.99-2.8-6.49-8.04-8.7-12.21-10.37-19.61-20.12-39.55-29.21-59.78-.7-1.55,1.35-2.83,2.45-1.54,19.71,23.14,34.05,51.6,59.55,68.07.67.43,1.35.85,2.05,1.24,11.21,6.29,26.4,1.74,37.24,8.76.54.35,1.23.74,1.78.4.23-.15.37-.4.49-.64,4.03-7.53,5.48-17.13,3.89-25.55-3.24-17.13-21.14-32.93-34.82-42.29-15.22-10.42-33.07-17.08-51.48-18.7-4.51-.4-9.11-.52-13.38-2.01s-8.27-4.65-9.36-9.04c-.92-3.72.34-7.82-2.23-11.22-1.26-1.67-3.6-2.27-5.3-1.05-2.15,1.54-1.47,4.67-.84,7.16,2.89,11.4.59,23.42-2.22,34.84-7.52,30.62-18.61,60.24-29.97,89.66-.32.84-.7,1.67-1.21,2.41-3.37,4.94-8.15,3.44-12.88,2.04-6.3-1.86-13.04-2.77-19.52-1.29-19.42,4.44-27.9,26.18-28.97,44.07-.93,15.56,2.42,31.48,10.36,44.89,7.94,13.41,20.56,24.17,35.37,29.03,16.76,5.5,35.62,2.98,49.95-7.41,4.39-3.18,8.3-7.02,11.48-11.41,3.08-4.26,4.66-10.83,8.98-13.98,4.45-3.24,9.47.06,14.02,2.06,6.65,2.93,13.99,4.13,21.24,3.71ZM311.51,91.3c.41.81.82,1.63,1.22,2.45,1.81,3.72,7.38,13.62,4.51,17.71-.76,1.08-2.13,1.61-3.37,1.92-1.13.28-2.3.4-3.47.4-4.01-.03-7.89-1.1-11.85-1.54-4.24-.47-8.09.25-11.97,1.97-6.61,2.92-11.72,8.58-15.16,14.93-2.37,4.38-4.01,9.11-5.33,13.9-.63,2.31-.91,6.78-3.89,7.34s-7.99-3.69-9.96-5.72c-.76-.78-1.49-1.66-1.7-2.72-.18-.92.04-1.88.27-2.79,2.81-11.12,6.81-21.81,10.31-32.7,2.63-8.17,5.19-16.36,7.8-24.53,2.61-8.17,5.27-16.33,8.13-24.42.92-2.62,2.59-12.3,5.69-12.86,1.32-.24,2.66.46,3.56,1.46s1.43,2.25,1.97,3.48c6.46,14.56,15.99,27.57,23.24,41.75Z"/>
  <g>
    <path class="cls-1" d="M298.2,330.5c.22-.67.51-1.31.91-1.91,2.57-3.88,7.99-4.2,12.48-5.43.66-.18,1.36-.42,1.79-.95.36-.45.48-1.04.57-1.6,1.12-7.04-.53-14.49-4.52-20.4-1.63-2.42-3.69-5.57-1.96-7.92.65-.88,1.7-1.37,2.71-1.79,10.88-4.52,22.98-6.08,34.65-4.45,8.38,1.17,15.16,5.12,15.78,14.26.26,3.89-.46,7.78-.79,11.67-.16,1.82-.18,3.8.89,5.27,1.45,1.97,4.27,2.24,6.71,2.03s5.03-.67,7.22.41c4.78,2.36,5.54,12.06,2.81,16.1-.83,1.23-2.13,2.04-3.39,2.81-3.08,1.89-6.17,3.78-9.25,5.67-4.93,3.02-4.18,6.85-2.85,12.02,2.7,10.54,4.13,21.39,4.65,32.25.02.51.03,1.07-.28,1.47-.24.3-.61.45-.97.59-8.34,3.23-17.17,6.9-26.25,6.97-7.64.05-14.14-3.47-17.05-10.75-.03-.08-.07-.16-.1-.25-1.81-4.67-2.24-9.75-2.66-14.74-.52-6.22-1.04-12.45-1.56-18.67-.48-5.77-10.41-2.22-14.31-4.08-4.36-2.08-5.48-7.7-5.72-12.52-.1-2.03-.11-4.17.51-6.07Z"/>
    <path class="cls-1" d="M521.19,343.31c1.14-21.31,29.74-32.73,48.6-32.68,1.3,0,3.05-.36,3.06-1.65.01-.84-.79-1.43-1.54-1.81-4.55-2.31-9.98-2.12-14.98-1.13-9.65,1.9-18.53,6.44-27.69,10.03-1.49.58-3.14,1.15-4.66.65-1.16-.38-2.03-1.33-2.8-2.27-1.29-1.59-2.46-3.34-3.01-5.31-1.24-4.42,1.7-8.12,4.78-10.93,17.48-16.02,41.45-19.66,64.27-16.88,7.49.91,15.27,2.57,21.02,7.44,6.04,5.11,8.95,13.03,10.41,20.8,2.41,12.78,1.58,25.93,3.93,38.72.6,3.26,1.57,6.34,2.48,9.5,1.31,4.55-7.63,4.13-10.41,4.59-5.75.95-11.51,1.89-17.26,2.84-2.62.43-5.38.85-7.89-.04-2.57-.92-4.56-3.14-7.22-3.84-3.12-.83-6.36.78-9.17,1.96-10.08,4.24-21.59,6.26-32.46,4.62-4.5-.68-9.06-2.08-12.46-5.11-3.83-3.42-5.76-8.52-6.64-13.58-.36-2.05-.47-4.02-.37-5.92ZM562.37,344.69c.69.76,1.46,1.47,2.43,1.77.84.25,1.74.17,2.6.02,2.78-.48,5.45-1.6,7.75-3.24,1.78-1.28,3.39-2.95,4.04-5.04,1.1-3.57-2.23-9.13-6.3-8.68-1.09.12-2.1.61-3.06,1.14-3.7,2.07-6.95,5.13-8.62,9.02-.37.87-.67,1.84-.41,2.76.2.7.69,1.26,1.17,1.81.13.15.27.3.4.45Z"/>
    <path class="cls-1" d="M434.19,312.93c.22-.67.51-1.31.91-1.91,2.57-3.88,7.99-4.2,12.48-5.43.66-.18,1.36-.42,1.79-.95.36-.45.48-1.04.57-1.6,1.12-7.04-.53-14.49-4.52-20.4-1.63-2.42-3.69-5.57-1.96-7.92.65-.88,1.7-1.37,2.71-1.79,10.88-4.52,22.98-6.08,34.65-4.45,8.38,1.17,15.16,5.12,15.78,14.26.26,3.89-.46,7.78-.79,11.67-.16,1.82-.18,3.8.89,5.27,1.45,1.97,4.27,2.24,6.71,2.03,2.44-.2,5.03-.67,7.22.41,4.78,2.36,5.54,12.06,2.81,16.1-.83,1.23-2.13,2.04-3.39,2.81-3.08,1.89-6.17,3.78-9.25,5.67-4.93,3.02-4.18,6.85-2.85,12.02,2.7,10.54,4.13,21.39,4.65,32.25.02.51.03,1.07-.28,1.47-.24.3-.61.45-.97.59-8.34,3.23-17.17,6.9-26.25,6.97-7.64.05-14.14-3.47-17.05-10.75-.03-.08-.07-.16-.1-.25-1.81-4.67-2.24-9.75-2.66-14.74-.52-6.22-1.04-12.45-1.56-18.67-.48-5.77-10.41-2.22-14.31-4.08-4.36-2.08-5.48-7.7-5.72-12.52-.1-2.03-.11-4.17.51-6.07Z"/>
    <path class="cls-1" d="M387.67,313.7c8.48-4.18,18.23-5.77,27.59-4.4,5.19.76,10.72,2.77,13.27,7.36,2.11,3.81,1.46,7.83,1.36,12.05-.12,5.06-.24,10.13-.14,15.19.12,6.18.57,12.37,1.75,18.44,1.1,5.68,4.2,11.47,4.67,17.18.15,1.77-.37,3.71-1.79,4.79-1.07.81-2.46,1.02-3.79,1.2-5.49.76-11.06,1.26-16.5,2.32-5.11.99-10.76,2.6-15.68.03-5.3-2.76-7.33-9.24-8.31-15.13-2.73-16.34-1.39-33.66-8-48.85-.6-1.38-1.27-2.79-1.27-4.29.02-3.21,4.43-4.69,6.83-5.88Z"/>
    <path class="cls-1" d="M373.66,279.15c6.48-11.49,24.05-11.18,36.03-9.8,2.62.3,5.25.74,7.67,1.78,4.54,1.95,8.09,6.07,9.35,10.85,1.26,4.78.2,10.11-2.79,14.04-3.89,5.11-10.43,7.49-16.78,8.45-8.13,1.23-17.25.7-25.02-2.18-3.3-1.22-6.41-3.19-8.4-6.09-2.21-3.2-2.86-7.35-2.14-11.17.42-2.24,1.14-4.2,2.09-5.89Z"/>
    <path class="cls-2" d="M55.02,352.18,55.17,351.72c.36-1.15.85-2.23,1.42-2.99,1.06-1.39,2.62-2.31,4.21-3.03,4.23-1.93,8.87-2.73,13.43-3.68s9.17-2.09,13.1-4.57c7.36-4.65,9.97-14.14,3.09-20.62-4.31-4.06-11.19-3.98-16.71-3.68-13.55.73-27.11,1.47-40.66,2.2-6.93.38-13.87.73-20.8,1.13-4.4.25-10.46,1.1-12,6.22-.35,1.16-.28,2.4-.2,3.61.91,14.43,2.2,28.86,2.88,43.3s.79,30.38,4.34,45.16c1.89,7.89,5.24,16.14,12.22,20.26,4.47,2.64,9.85,3.22,15.04,3.12,8.27-.15,16.51-1.88,24.14-5.06,1.67-.7,3.43-1.57,4.28-3.17,2.14-4.03-1.92-11.8-2.82-15.9-1.29-5.9-2.03-11.91-2.22-17.94-.03-1.08-.03-2.24.56-3.15.88-1.36,2.72-1.67,4.33-1.85,8.72-.97,17.9-1.3,26.49-3.05,3.53-.72,7.13-2.54,8.61-5.82,1.07-2.37.84-5.18-.1-7.6-6.22-16-25.67-14.88-39.69-15.68-.66-.04-1.34-.08-1.93-.37-1.09-.54-1.65-1.82-1.67-3.04-.01-1.07.23-2.47.64-3.79ZM59.52,419.33s0,0,0,.01c0,0,0,0,0-.01ZM59.84,417.42s-.04.09-.05.14c.02-.05.04-.09.05-.14Z"/>
    <path class="cls-1" d="M297.04,403.54c.16-.07.31-.14.46-.2,1.68-.73,3.47-1.56,4.39-3.14,1.48-2.52.14-5.68-1.02-8.37-4.96-11.49-6.43-24.03-7.27-36.4-.41-5.99,1.17-32.55-5.44-33.78-6.67-1.24-13.39-2.49-20.18-2.45-6.79.03-13.72,1.42-19.43,5.09-1.34.86-2.65,1.89-3.42,3.28-.88,1.59-.98,3.48-.97,5.3.04,9,2.29,17.75,4.18,26.49,1.31,6.03,5.44,16.89-.81,21.41-2.93,2.12-6.98,2.29-10.38,1.05-1.33-.48-2.63-1.2-3.49-2.33-.64-.85-1-1.88-1.28-2.91-2.66-9.43-.74-19.46-1.17-29.25-.93-21.51-27.86-12.88-40.24-8.31-4.55,1.68-3.46,5.27-3.28,9.32.54,12.09-1.09,24.42,2,36.28,2.44,9.35,8.14,18.34,16.91,22.39,7.1,3.28,15.35,2.99,23.04,1.55s15.17-3.95,22.93-4.95c1.84-.24,3.77-.38,5.5.28,1.57.59,2.83,1.78,4.19,2.76,10.43,7.53,24.43,1.4,34.77-3.11Z"/>
    <path class="cls-1" d="M161.15,377.71c3.03-3.39,6.69-6.21,10.12-9.17,3.6-3.11,10.41-8.67,10.27-13.95-.14-5.21-5.14-9.37-10.32-9.92-5.18-.55-10.29,1.78-14.45,4.92-1.74,1.31-3.97,2.85-5.88,1.8-2.35-1.29-1.5-4.55-2.04-6.7-.7-2.77-2.83-4.68-5.73-4.93-2.11-.18-4.2.37-6.28.73-9.06,1.56-18.4-.55-27.54.52-2.5.29-5.28,1.04-6.48,3.26-1.13,2.09-.41,4.64.25,6.91,5.78,20,4.86,41.33,9.12,61.7.61,2.94,1.39,5.96,3.3,8.27,2.94,3.56,7.91,4.65,12.52,4.91,8.2.46,16.37-1.03,24.41-2.65,2.32-.47,5-1.24,5.81-3.46.39-1.06.24-2.23.01-3.33-1.34-6.33-4.26-11.77-4.4-18.47-.13-5.94,1.31-11.99,4.58-16.96.82-1.25,1.73-2.41,2.72-3.51Z"/>
    <path class="cls-3" d="M163.2,375.24s0,0,0,0"/>
  </g>
</svg>