<?xml version="1.0" encoding="UTF-8"?>
<svg id="Capa_1" data-name="Capa 1" xmlns="http://www.w3.org/2000/svg" viewBox="0 0 846.31 201.09">
  <defs>
    <style>
      .cls-1 {
        fill: #f80680;
      }

      .cls-1, .cls-2, .cls-3 {
        stroke-width: 0px;
      }

      .cls-2 {
        fill: #fc0382;
      }

      .cls-3 {
        fill: #d9237a;
      }
    </style>
  </defs>
  <path class="cls-2" d="M118.9,177.66c9.26-.54,18.34-4.44,24.56-11.32,10.8-11.94,14.19-32.45,11.36-47.92-2.95-16.09-15.25-30.66-32.12-32.63-3.66-.43-7.6-.28-10.69-2.44-3.13-2.19-5.09-6.31-6.82-9.58-8.14-15.38-15.78-31.03-22.91-46.9-.55-1.21,1.06-2.22,1.92-1.21,15.47,18.16,26.71,40.48,46.72,53.41.53.34,1.06.66,1.61.97,8.8,4.94,20.71,1.37,29.22,6.87.42.27.97.58,1.39.31.18-.11.29-.31.39-.5,3.16-5.91,4.3-13.44,3.05-20.04-2.54-13.44-16.59-25.84-27.32-33.18-11.94-8.18-25.95-13.4-40.39-14.67-3.54-.31-7.15-.41-10.5-1.58s-6.49-3.65-7.34-7.09c-.72-2.92.27-6.14-1.75-8.8-.99-1.31-2.82-1.78-4.16-.83-1.69,1.2-1.15,3.66-.66,5.62,2.26,8.94.46,18.37-1.74,27.33-5.9,24.03-14.6,47.27-23.51,70.34-.25.66-.55,1.31-.95,1.89-2.64,3.88-6.4,2.7-10.11,1.6-4.94-1.46-10.23-2.17-15.32-1.01C7.61,109.76.96,126.83.12,140.86c-.73,12.21,1.9,24.7,8.13,35.22,6.23,10.52,16.13,18.97,27.75,22.78,13.15,4.31,27.95,2.33,39.19-5.81,3.44-2.49,6.51-5.51,9.01-8.95,2.42-3.34,3.65-8.5,7.04-10.97,3.49-2.54,7.43.05,11,1.62,5.22,2.3,10.97,3.24,16.66,2.91ZM100.41,71.63c.33.64.64,1.28.96,1.92,1.42,2.92,5.79,10.69,3.54,13.89-.6.85-1.67,1.27-2.64,1.51-.89.22-1.81.32-2.72.31-3.15-.02-6.19-.86-9.3-1.21-3.33-.37-6.35.2-9.39,1.54-5.18,2.29-9.2,6.73-11.9,11.72-1.86,3.44-3.15,7.14-4.18,10.9-.5,1.81-.72,5.32-3.05,5.76s-6.27-2.9-7.81-4.48c-.59-.61-1.17-1.3-1.33-2.14-.14-.73.03-1.47.22-2.19,2.21-8.72,5.34-17.11,8.09-25.66,2.07-6.41,4.07-12.84,6.12-19.25,2.05-6.41,4.14-12.81,6.38-19.16.73-2.05,2.03-9.65,4.46-10.09,1.03-.19,2.09.36,2.79,1.15s1.12,1.77,1.55,2.73c5.07,11.43,12.54,21.63,18.23,32.76Z"/>
  <g>
    <path class="cls-1" d="M525.77,88.8c.3-.64.68-1.23,1.15-1.77,3.06-3.51,8.47-3.11,13.08-3.74.68-.09,1.4-.23,1.9-.71.42-.4.61-.97.77-1.52,2.03-6.83,1.38-14.43-1.8-20.81-1.3-2.61-2.92-6-.9-8.11.76-.79,1.86-1.13,2.92-1.42,11.38-3.05,23.58-3,34.94.15,8.16,2.26,14.35,7.07,13.76,16.22-.25,3.9-1.48,7.65-2.32,11.46-.39,1.78-.68,3.74.19,5.34,1.17,2.14,3.94,2.78,6.38,2.9s5.07,0,7.1,1.36c4.43,2.97,3.9,12.68.67,16.33-.98,1.11-2.38,1.74-3.73,2.34-3.31,1.47-6.61,2.94-9.92,4.4-5.29,2.35-5.04,6.24-4.41,11.54,1.29,10.8,1.28,21.75.36,32.58-.04.51-.11,1.06-.47,1.42-.28.27-.67.37-1.04.46-8.7,2.1-17.93,4.58-26.94,3.45-7.58-.95-13.56-5.3-15.49-12.9-.02-.09-.04-.17-.06-.26-1.18-4.87-.94-9.96-.69-14.96.31-6.24.61-12.47.92-18.71.28-5.78-10.03-3.57-13.65-5.93-4.05-2.64-4.42-8.35-4.02-13.16.17-2.03.44-4.15,1.3-5.95Z"/>
    <path class="cls-1" d="M745.13,130.86c3.94-20.97,33.79-28.52,52.48-26,1.28.17,3.07.05,3.25-1.23.12-.83-.6-1.52-1.29-2-4.21-2.89-9.61-3.41-14.7-3.09-9.81.61-19.22,3.95-28.77,6.3-1.56.38-3.26.73-4.7.03-1.1-.53-1.84-1.58-2.48-2.62-1.07-1.75-2-3.63-2.29-5.66-.64-4.54,2.76-7.82,6.18-10.21,19.44-13.58,43.68-14.03,65.93-8.27,7.3,1.89,14.79,4.55,19.86,10.14,5.31,5.86,7.15,14.09,7.58,21.99.7,12.99-1.85,25.91-1.2,38.9.16,3.31.72,6.49,1.21,9.75.7,4.69-8.11,3.09-10.92,3.18-5.83.18-11.66.36-17.48.54-2.66.08-5.45.14-7.81-1.08-2.43-1.25-4.11-3.71-6.65-4.76-2.98-1.24-6.41-.07-9.35.73-10.55,2.88-22.23,3.36-32.79.31-4.37-1.27-8.71-3.26-11.68-6.71-3.35-3.89-4.58-9.21-4.79-14.34-.09-2.08.06-4.05.41-5.91ZM785.77,137.65c.59.84,1.25,1.65,2.18,2.07.8.36,1.7.39,2.57.36,2.82-.11,5.61-.87,8.11-2.2,1.94-1.03,3.75-2.48,4.67-4.47,1.56-3.4-1.01-9.35-5.1-9.43-1.1-.02-2.16.32-3.18.73-3.94,1.57-7.57,4.17-9.74,7.81-.49.81-.91,1.74-.77,2.68.1.72.52,1.34.92,1.95.11.17.23.34.34.5Z"/>
    <path class="cls-1" d="M662.89,89.3c.3-.64.68-1.23,1.15-1.77,3.06-3.51,8.47-3.11,13.08-3.74.68-.09,1.4-.23,1.9-.71.42-.4.61-.97.77-1.52,2.03-6.83,1.38-14.43-1.8-20.81-1.3-2.61-2.92-6-.9-8.11.76-.79,1.86-1.13,2.92-1.42,11.38-3.05,23.58-3,34.94.15,8.16,2.26,14.35,7.07,13.76,16.22-.25,3.9-1.48,7.65-2.32,11.46-.39,1.78-.68,3.74.19,5.34,1.17,2.14,3.94,2.78,6.38,2.9,2.44.12,5.07,0,7.1,1.36,4.43,2.97,3.9,12.68.67,16.33-.98,1.11-2.38,1.74-3.73,2.34-3.31,1.47-6.61,2.94-9.92,4.4-5.29,2.35-5.04,6.24-4.41,11.54,1.29,10.8,1.28,21.75.36,32.58-.04.51-.11,1.06-.47,1.42-.28.27-.67.37-1.04.46-8.7,2.1-17.93,4.58-26.94,3.45-7.58-.95-13.56-5.3-15.49-12.9-.02-.09-.04-.17-.06-.26-1.18-4.87-.94-9.96-.69-14.96.31-6.24.61-12.47.92-18.71.28-5.78-10.03-3.57-13.65-5.93-4.05-2.64-4.42-8.35-4.02-13.16.17-2.03.44-4.15,1.3-5.95Z"/>
    <path class="cls-1" d="M616.67,83.93c8.95-3.03,18.83-3.32,27.93-.73,5.04,1.44,10.27,4.16,12.18,9.04,1.59,4.05.41,7.96-.24,12.13-.78,5-1.57,10.01-2.14,15.04-.69,6.14-1.07,12.34-.7,18.51.35,5.78,2.65,11.93,2.37,17.65-.09,1.78-.86,3.63-2.4,4.51-1.16.67-2.57.69-3.91.7-5.54.03-11.13-.21-16.67.12-5.19.31-11.01,1.16-15.55-2.03-4.89-3.44-6.05-10.13-6.25-16.1-.55-16.56,3.05-33.55-1.49-49.48-.41-1.45-.9-2.93-.69-4.42.44-3.18,5.01-4.07,7.55-4.93Z"/>
    <path class="cls-1" d="M607.34,47.83c7.94-10.54,25.31-7.91,37.01-4.96,2.55.64,5.1,1.42,7.36,2.77,4.24,2.53,7.22,7.08,7.84,11.98s-1.13,10.05-4.62,13.55c-4.53,4.56-11.32,6.05-17.75,6.17-8.22.15-17.19-1.58-24.51-5.45-3.11-1.64-5.93-4.01-7.53-7.14-1.77-3.47-1.87-7.66-.65-11.36.71-2.17,1.68-4.01,2.85-5.56Z"/>
    <path class="cls-2" d="M281.85,78.27,282.06,77.84c.51-1.09,1.14-2.1,1.81-2.77,1.23-1.24,2.9-1.94,4.58-2.45,4.45-1.35,9.16-1.54,13.79-1.88s9.36-.86,13.59-2.81c7.91-3.64,11.74-12.7,5.77-20.03-3.74-4.59-10.56-5.42-16.08-5.85-13.53-1.06-27.06-2.11-40.59-3.17-6.92-.54-13.84-1.1-20.77-1.62-4.39-.33-10.51-.29-12.71,4.59-.5,1.1-.59,2.34-.67,3.55-.99,14.43-1.62,28.9-2.84,43.3-1.28,15.06-3.21,30.22-1.64,45.34.84,8.07,3.07,16.69,9.45,21.69,4.08,3.2,9.34,4.49,14.5,5.08,8.22.94,16.61.31,24.6-1.84,1.75-.47,3.61-1.1,4.66-2.58,2.65-3.71-.35-11.95-.7-16.14-.5-6.01-.45-12.07.16-18.08.11-1.08.27-2.23.97-3.05,1.06-1.24,2.91-1.3,4.54-1.27,8.77.18,17.91,1.06,26.66.46,3.59-.25,7.4-1.58,9.3-4.64,1.37-2.21,1.51-5.02.9-7.55-4.06-16.68-23.49-18.13-37.28-20.77-.65-.12-1.31-.26-1.86-.62-1.01-.67-1.4-2.03-1.25-3.24.13-1.07.55-2.42,1.13-3.67ZM277.47,145.43s0,0,0,.01c0,0,0,0,0-.01ZM278.04,143.58s-.05.09-.07.13c.02-.05.05-.09.07-.13Z"/>
    <path class="cls-1" d="M515,161.05c.16-.05.33-.09.49-.14,1.76-.51,3.64-1.09,4.77-2.54,1.8-2.31.89-5.61.09-8.43-3.41-12.04-3.21-24.66-2.42-37.04.38-6,5.45-32.11-.95-34.2-6.45-2.11-12.95-4.23-19.68-5.09-6.73-.86-13.79-.4-19.93,2.49-1.45.68-2.87,1.52-3.82,2.8-1.08,1.46-1.43,3.32-1.66,5.12-1.15,8.92-.07,17.9.65,26.81.5,6.15,3.16,17.46-3.62,21.12-3.19,1.72-7.22,1.35-10.43-.32-1.26-.65-2.45-1.53-3.15-2.77-.53-.93-.74-2-.89-3.05-1.39-9.69,1.83-19.39,2.7-29.15,1.91-21.45-25.92-16.43-38.79-13.54-4.73,1.07-4.12,4.76-4.48,8.81-1.05,12.05-4.3,24.06-2.8,36.22,1.18,9.59,5.65,19.25,13.82,24.42,6.61,4.18,14.82,4.98,22.63,4.57s15.56-1.92,23.38-1.89c1.86,0,3.78.12,5.42,1,1.48.79,2.57,2.13,3.79,3.29,9.35,8.84,24.03,4.6,34.88,1.49Z"/>
    <path class="cls-1" d="M383.7,117.55c3.45-2.96,7.45-5.27,11.24-7.76,3.97-2.61,11.46-7.22,12.02-12.48.55-5.18-3.86-9.97-8.93-11.19-5.07-1.23-10.43.41-14.97,2.98-1.9,1.07-4.32,2.31-6.07,1.01-2.16-1.59-.89-4.71-1.14-6.91-.33-2.84-2.19-5.01-5.03-5.64-2.07-.46-4.21-.19-6.32-.1-9.19.35-18.17-2.97-27.36-3.11-2.52-.04-5.38.34-6.85,2.38-1.39,1.92-1.01,4.54-.66,6.89,3.09,20.59-.63,41.61.92,62.37.22,2.99.59,6.09,2.18,8.64,2.45,3.91,7.23,5.66,11.77,6.52,8.06,1.53,16.36,1.13,24.55.59,2.36-.16,5.12-.57,6.21-2.67.52-1,.53-2.18.45-3.3-.49-6.46-2.67-12.23-1.93-18.89.66-5.91,2.88-11.71,6.77-16.21.98-1.13,2.04-2.16,3.16-3.12Z"/>
    <path class="cls-3" d="M386.05,115.38s0,0,0,0"/>
  </g>
</svg>