<svg width="278" height="222" viewBox="0 0 278 222" fill="none" xmlns="http://www.w3.org/2000/svg">
<g clip-path="url(#clip0_212_1701)">
<path d="M234.289 212.556C235.384 212.624 235.988 211.262 235.16 210.468L235.077 210.14C235.088 210.114 235.099 210.087 235.11 210.061C235.763 208.501 237.561 207.762 239.122 208.408C244.057 210.452 238.846 215.149 239.238 218.327C239.375 219.424 243.665 219.484 243.422 220.561C245.703 215.565 246.902 210.111 246.901 204.626C246.9 203.248 246.824 201.87 246.67 200.495C246.543 199.371 246.368 198.253 246.142 197.146C244.918 191.161 242.27 185.461 238.453 180.701C236.618 179.697 237.737 178.126 236.813 176.245C236.48 175.566 233.518 175.551 233.395 174.807C233.527 174.824 235.442 172.832 234.81 171.847C234.393 171.199 234.523 170.374 235.058 169.82C235.11 169.765 235.159 169.708 235.205 169.646C236.784 167.5 238.962 167.874 240.099 170.79C242.527 172.016 242.552 174.052 241.063 176.01C240.115 177.256 239.986 178.942 239.154 180.275C239.24 180.385 239.329 180.491 239.415 180.601C240.984 182.616 242.342 184.782 243.487 187.058C243.163 184.529 243.639 181.481 244.452 179.516C245.384 177.261 247.138 175.364 248.674 173.414C250.509 171.085 254.243 172.142 254.568 175.091C254.571 175.119 254.574 175.148 254.577 175.176C254.35 175.304 254.127 175.441 253.91 175.585C252.67 176.407 253.1 178.331 254.569 178.558L254.602 178.563C254.52 179.382 251.617 181.963 251.412 182.762C253.376 190.356 251.907 191.359 245.867 191.486L245.55 191.938C246.122 193.587 246.583 195.275 246.929 196.985C247.254 198.572 247.481 200.176 247.608 201.787C247.766 203.82 247.753 205.863 247.583 207.893L247.593 207.821C248.027 205.585 249.238 203.497 250.996 202.05C253.616 199.893 257.318 199.097 260.144 197.363C261.505 196.528 263.249 197.606 263.012 199.186L263 199.262C262.58 199.434 262.169 199.633 261.772 199.856C261.545 199.984 261.322 200.121 261.104 200.265C259.865 201.087 260.295 203.012 261.764 203.237L261.797 203.243C261.821 203.246 261.842 203.249 261.866 203.253C261.144 204.971 254.27 207.394 253.011 208.769C251.787 215.402 252.388 215.205 246.753 213.275H246.75C246.134 215.963 245.235 218.589 244.079 221.092L234.531 221.095C234.497 220.989 234.466 220.879 234.435 220.773C235.318 220.828 236.208 220.776 237.077 220.614C236.369 219.744 235.66 218.867 234.951 217.996C234.934 217.979 234.92 217.962 234.907 217.945L234.896 217.931L233.913 214.69C233.99 213.971 234.117 213.258 234.289 212.556Z" fill="#F2F2F2"/>
<path d="M133.389 221.018L48.8991 221.047C44.6546 221.048 40.8525 218.851 38.7289 215.17C37.667 213.329 37.136 211.309 37.1353 209.289C37.1346 207.27 37.6645 205.25 38.7249 203.408L80.9427 126.423C83.064 122.74 86.8646 120.54 91.1091 120.539C95.3537 120.537 99.1558 122.734 101.28 126.416L143.556 203.382C144.615 205.218 145.145 207.235 145.145 209.253C145.145 211.272 144.615 213.292 143.555 215.133C141.434 218.816 137.633 221.016 133.389 221.018ZM38.1973 209.288C38.1972 211.127 47.5203 207.165 48.4861 208.84C50.4181 212.189 45.0371 219.987 48.8988 219.985C48.8988 219.985 140.707 217.954 142.637 214.603C143.602 212.928 144.084 211.09 144.083 209.252C144.082 207.415 143.599 205.578 142.633 203.903L100.356 126.937C98.4299 123.597 94.9711 121.599 91.1095 121.6C87.2497 121.601 38.1974 207.449 38.1973 209.288Z" fill="#3F3D56"/>
<path d="M134.327 219.956C133.268 222.079 182.869 221.427 183.455 221.426C183.455 221.426 197.397 221.118 197.69 220.609C197.836 220.355 197.91 220.076 197.91 219.797C197.909 219.517 197.836 219.238 197.689 218.984L191.269 207.297C190.977 206.789 190.452 206.486 189.865 206.486C189.841 206.486 189.805 206.508 189.758 206.549C181.194 214.216 170.64 219.284 159.155 219.455C146.944 219.636 134.394 219.821 134.327 219.956Z" fill="#3F3D56"/>
<path d="M3.96605e-08 221.369C0.000121907 221.719 0.281057 222 0.630779 222L277.37 221.904C277.719 221.904 278 221.623 278 221.272C278 220.922 277.719 220.641 277.369 220.641L0.630344 220.737C0.280623 220.737 -0.000121827 221.018 3.96605e-08 221.369Z" fill="#CCCCCC"/>
<path d="M213.997 218.303L209.205 218.304L206.919 199.788L213.992 199.786L213.997 218.303Z" fill="#A0616A"/>
<path d="M197.578 218.2C197.429 218.452 197.35 219.264 197.35 219.557C197.351 220.457 198.079 221.186 198.977 221.186L213.819 221.181C214.432 221.18 214.928 220.682 214.928 220.069L214.928 219.45C214.928 219.45 215.662 217.589 214.149 215.297C214.149 215.297 212.271 217.093 209.463 214.282L208.635 212.78L202.644 217.172L199.322 217.583C198.596 217.672 197.951 217.569 197.578 218.2Z" fill="#2F2E41"/>
<path d="M195.622 202.466L191.082 204.005L182.996 187.198L189.696 184.927L195.622 202.466Z" fill="#A0616A"/>
<path d="M180.034 207.636C179.973 207.922 180.159 208.717 180.252 208.995C180.54 209.847 181.464 210.304 182.315 210.016L196.373 205.249C196.953 205.052 197.264 204.422 197.068 203.84L196.87 203.254C196.87 203.254 196.97 201.256 194.804 199.57C194.804 199.57 193.599 201.873 190.04 200.111L188.775 198.954L184.504 205.037L181.489 206.492C180.83 206.81 180.186 206.919 180.034 207.636Z" fill="#2F2E41"/>
<path d="M188.219 95.0532L178.923 125.891L167.95 153.629L185.323 193.241L191.765 190.37L184.057 153.981L200.221 129.289L207.764 206.372L214.207 206.011L222.944 112.968L224.19 92.7102L188.219 95.0532Z" fill="#2F2E41"/>
<path d="M216.293 26.7422L202.692 29.2567L201.621 35.3522L193.39 39.2989L189.11 84.1175C189.11 84.1175 181.955 93.4419 187.683 96.3082L224.19 92.7102C224.19 92.7102 225.977 86.0809 224.188 85.4519C222.398 84.823 222.392 68.9881 222.392 68.9881L230.613 36.4177L218.442 32.1195L216.293 26.7422Z" fill="#E6E6E6"/>
<path d="M208.271 26.6246C214.336 26.6246 219.253 21.6991 219.253 15.6233C219.253 9.5474 214.336 4.62195 208.271 4.62195C202.205 4.62195 197.288 9.5474 197.288 15.6233C197.288 21.6991 202.205 26.6246 208.271 26.6246Z" fill="#A0616A"/>
<path d="M215.544 17.2561C214.667 17.7367 215.499 20.0313 214.951 20.2296C214.318 20.4589 212.009 17.8268 211.981 14.8787C211.972 13.9864 212.177 13.5579 211.98 12.5C211.722 11.1162 210.931 9.48397 210.198 9.5273C209.764 9.55299 209.34 10.168 209.308 10.7169C209.264 11.4862 210.01 11.789 209.902 12.2034C209.697 12.9927 206.565 13.5376 205.45 12.2049C204.575 11.1601 205.246 9.32575 204.855 9.23182C204.567 9.16258 204.257 10.1725 203.075 11.3138C202.629 11.7437 201.966 12.3832 201.591 12.2063C201.048 11.9506 201.442 10.1489 201.293 10.1251C201.17 10.1053 201.092 11.3716 200.404 12.504C199.519 13.9588 197.694 15.0802 196.842 14.5866C196.321 14.2842 196.279 13.4422 196.248 12.8028C196.182 11.4557 194.228 8.35695 194.733 6.91583C195.762 3.98271 197.526 6.05028 198.323 5.07143C199.403 3.7463 200.372 4.45876 202.181 2.98876C203.949 1.55273 203.965 0.10939 205.149 0.0144058C206.215 -0.0711309 206.594 1.06811 207.82 0.905477C208.859 0.767708 209.085 -0.11589 209.898 0.0127552C210.642 0.13053 210.691 0.908932 211.679 1.20147C212.31 1.38823 212.449 1.11791 213.163 1.20095C214.65 1.37375 215.648 2.72997 215.835 2.98403C216.556 3.96341 216.277 4.37642 217.024 5.36227C217.668 6.21244 219.095 5.85142 219.631 6.27603C221.385 7.66348 222.138 10.2222 222.154 13.1385C222.164 15.1783 221.899 16.2088 221.306 18.7834C220.856 20.7384 218.773 23.2648 217.624 24.3914C217.315 24.6938 216.451 25.5415 215.843 25.284C215.267 25.0399 215.25 23.9424 215.249 23.7975C215.246 23.2991 215.379 22.6825 216.435 21.1211C217.545 19.481 217.986 19.2939 217.919 18.7419C217.8 17.7663 216.242 16.873 215.544 17.2561Z" fill="#2F2E41"/>
<path d="M177.234 119.823C176.893 122.691 178.092 125.192 179.914 125.41C181.736 125.628 183.489 123.48 183.831 120.613C183.981 119.357 183.835 118.172 183.471 117.218L184.767 105.05L179.054 104.562L178.382 116.61C177.804 117.451 177.384 118.568 177.234 119.823Z" fill="#A0616A"/>
<path d="M193.658 39.0094C193.658 39.0094 190.698 39.0516 188.738 42.886C187.696 44.9235 182.124 83.0258 182.124 83.0258L176.991 114.239L185.735 114.283L192.548 84.7235L198.28 67.5796L193.658 39.0094Z" fill="#E6E6E6"/>
<path d="M218.264 115.243C217.426 118.007 218.171 120.679 219.926 121.213C221.682 121.747 223.784 119.939 224.621 117.176C224.988 115.966 225.051 114.774 224.859 113.771L228.26 102.017L222.72 100.536L219.955 112.28C219.239 113.007 218.63 114.034 218.264 115.243Z" fill="#A0616A"/>
<path d="M224.35 36.9578C224.35 36.9578 228.644 33.7294 232.225 38.7477C235.806 43.766 237.252 84.9972 237.252 84.9972L227.238 110.457L219.721 107.95L226.869 76.7545L214.333 53.0954L224.35 36.9578Z" fill="#E6E6E6"/>
<path d="M115.763 204.04C137.125 204.04 154.442 186.693 154.442 165.294C154.442 143.896 137.125 126.549 115.763 126.549C94.4007 126.549 77.0833 143.896 77.0833 165.294C77.0833 186.693 94.4007 204.04 115.763 204.04Z" fill="#FC0382"/>
<path d="M115.77 189.046C117.731 189.046 119.321 187.453 119.321 185.488C119.321 183.523 117.731 181.931 115.77 181.931C113.808 181.931 112.218 183.523 112.218 185.488C112.218 187.453 113.808 189.046 115.77 189.046Z" fill="white"/>
<path d="M115.754 141.543C115.428 143.714 116.013 144.169 116.016 153.53C116.019 162.891 117.958 175.443 115.766 175.444C113.574 175.444 112.772 149.541 105.16 147.249C96.2104 144.553 116.811 134.514 115.754 141.543Z" fill="white"/>
<path d="M63.8493 185.076L60.3547 192.472C64.5794 189.438 71.1782 186.822 76.4293 185.421C71.5366 183.053 65.5497 179.236 61.973 175.457L63.9829 183.272C40.4181 178.465 23.4958 160.356 23.4887 139.613L22.6375 139.319C22.6449 160.986 39.3331 180.167 63.8493 185.076Z" fill="#3F3D56"/>
</g>
<defs>
<clipPath id="clip0_212_1701">
<rect width="278" height="222" fill="white"/>
</clipPath>
</defs>
</svg>
